<svg width="22" height="22" viewBox="0 0 22 22" fill="none" xmlns="http://www.w3.org/2000/svg">
<g clip-path="url(#clip0)">
<path d="M17.4515 15.4686H4.31161C4.11086 15.4686 3.92331 15.3694 3.81028 15.2035C2.07662 12.6612 1.94362 7.77067 1.93356 7.0447C1.93293 7.01624 1.93262 6.98748 1.93262 6.95886C1.93262 6.62417 2.20364 6.35268 2.53833 6.35205H2.53959C2.87365 6.35205 3.14514 6.62229 3.1464 6.95651C3.1464 6.96059 3.14656 6.99644 3.14797 7.05995C3.20142 8.78654 4.62272 10.1745 6.36204 10.1745C8.13517 10.1745 9.57769 8.73199 9.57769 6.95886C9.57769 6.6237 9.8495 6.35205 10.1845 6.35205H11.5784C11.9136 6.35205 12.1853 6.6237 12.1853 6.95886C12.1853 8.73199 13.6279 10.1745 15.4011 10.1745C17.142 10.1745 18.5642 8.78402 18.6153 7.05523C18.6164 6.99455 18.6167 6.96059 18.6167 6.95666C18.618 6.62229 18.8893 6.35205 19.2235 6.35205H19.2246C19.5593 6.35268 19.8303 6.62417 19.8303 6.95886C19.8303 6.98763 19.83 7.01624 19.8295 7.04486C19.8193 7.77067 19.6863 12.6613 17.9528 15.2037C17.8398 15.3694 17.6521 15.4686 17.4515 15.4686Z" fill="#FFF780"/>
<path d="M19.2245 6.35205C19.2242 6.35205 19.2239 6.35205 19.2234 6.35205C18.8893 6.35205 18.6178 6.62229 18.6166 6.95651C18.6166 6.96059 18.6164 6.99455 18.6152 7.05523C18.5641 8.78386 17.1418 10.1745 15.4009 10.1745C13.6278 10.1745 12.1853 8.73199 12.1853 6.95886C12.1853 6.6237 11.9135 6.35205 11.5785 6.35205H10.8816V15.4684H17.4514C17.6521 15.4684 17.8397 15.3692 17.9527 15.2035C19.6864 12.6612 19.8194 7.77052 19.8294 7.0447C19.8301 7.01624 19.8304 6.98748 19.8304 6.95886C19.8302 6.62417 19.5592 6.35268 19.2245 6.35205Z" fill="#FFC02E"/>
<path d="M10.8816 4.28149C9.80046 4.28149 8.9209 5.16106 8.9209 6.24216C8.9209 7.32327 9.80046 8.20268 10.8816 8.20268C11.9627 8.20268 12.8422 7.32327 12.8422 6.24216C12.8422 5.16106 11.9627 4.28149 10.8816 4.28149Z" fill="#FFC02E"/>
<path d="M10.8816 4.28149V8.20283C11.9627 8.20268 12.8421 7.32327 12.8421 6.24216C12.8421 5.16106 11.9625 4.28165 10.8816 4.28149Z" fill="#FFA73B"/>
<path d="M2.53953 5.79456C1.45842 5.79456 0.578857 6.67412 0.578857 7.75522C0.578857 8.83633 1.45842 9.71589 2.53953 9.71589C3.62063 9.71589 4.50004 8.83633 4.50004 7.75522C4.50004 6.67412 3.62063 5.79456 2.53953 5.79456Z" fill="#FFC02E"/>
<path d="M19.2235 5.79456C18.1423 5.79456 17.2629 6.67412 17.2629 7.75522C17.2629 8.83617 18.1423 9.71574 19.2235 9.71574C20.3046 9.71574 21.1841 8.83617 21.1841 7.75522C21.1841 6.67412 20.3046 5.79456 19.2235 5.79456Z" fill="#FFA73B"/>
<path d="M17.4513 17.4593H4.3114C3.97624 17.4593 3.70459 17.1876 3.70459 16.8524V15.0428H18.0581V16.8524C18.0581 17.1876 17.7864 17.4593 17.4513 17.4593Z" fill="#FFC02E"/>
<path d="M10.8816 17.4593H17.4514C17.7865 17.4593 18.0582 17.1876 18.0582 16.8524V15.0428H10.8816V17.4593Z" fill="#FFA73B"/>
</g>
<defs>
<clipPath id="clip0">
<rect width="20.6053" height="20.6053" fill="white" transform="translate(0.578857 0.578979)"/>
</clipPath>
</defs>
</svg>
