<svg width="24" height="28" viewBox="0 0 24 28" fill="none" xmlns="http://www.w3.org/2000/svg">
<path d="M4.90758 26.94C7.06568 26.94 8.81516 25.1849 8.81516 23.0198C8.81516 20.8547 7.06568 19.0995 4.90758 19.0995C2.74948 19.0995 1 20.8547 1 23.0198C1 25.1849 2.74948 26.94 4.90758 26.94Z" stroke="black" stroke-width="2" stroke-miterlimit="10" stroke-linecap="round" stroke-linejoin="round"/>
<path d="M18.5684 26.94C20.7265 26.94 22.476 25.1849 22.476 23.0198C22.476 20.8547 20.7265 19.0995 18.5684 19.0995C16.4103 19.0995 14.6608 20.8547 14.6608 23.0198C14.6608 25.1849 16.4103 26.94 18.5684 26.94Z" stroke="black" stroke-width="2" stroke-miterlimit="10" stroke-linecap="round" stroke-linejoin="round"/>
<path d="M8.81506 23.0198V3.49758L22.4837 1V23.0198" stroke="black" stroke-width="2" stroke-miterlimit="10" stroke-linecap="round" stroke-linejoin="round"/>
<path d="M8.81506 8.27141L22.4837 5.86868" stroke="black" stroke-width="2" stroke-miterlimit="10" stroke-linecap="round" stroke-linejoin="round"/>
</svg>
