<svg width="24" height="28" viewBox="0 0 24 28" fill="none" xmlns="http://www.w3.org/2000/svg">
<path d="M4.90758 26.94C7.06568 26.94 8.81516 25.1848 8.81516 23.0197C8.81516 20.8546 7.06568 19.0995 4.90758 19.0995C2.74948 19.0995 1 20.8546 1 23.0197C1 25.1848 2.74948 26.94 4.90758 26.94Z" stroke="#4C48FE" stroke-width="2" stroke-miterlimit="10" stroke-linecap="round" stroke-linejoin="round"/>
<path d="M18.5685 26.94C20.7266 26.94 22.4761 25.1848 22.4761 23.0197C22.4761 20.8546 20.7266 19.0995 18.5685 19.0995C16.4104 19.0995 14.6609 20.8546 14.6609 23.0197C14.6609 25.1848 16.4104 26.94 18.5685 26.94Z" stroke="#4C48FE" stroke-width="2" stroke-miterlimit="10" stroke-linecap="round" stroke-linejoin="round"/>
<path d="M8.81494 23.0198V3.49758L22.4836 1V23.0198" stroke="#4C48FE" stroke-width="2" stroke-miterlimit="10" stroke-linecap="round" stroke-linejoin="round"/>
<path d="M8.81494 8.27138L22.4836 5.86865" stroke="#4C48FE" stroke-width="2" stroke-miterlimit="10" stroke-linecap="round" stroke-linejoin="round"/>
</svg>
