<svg width="297" height="656" viewBox="0 0 297 656" fill="none" xmlns="http://www.w3.org/2000/svg">
<g filter="url(#filter0_b)">
<path d="M238.151 232.136C246.66 229.595 250.755 219.986 246.756 212.166L231.203 181.609L253.574 162.363L262.021 179.017C260.443 179.228 258.886 179.654 257.419 180.399C250.446 183.949 247.642 192.443 251.202 199.407C254.414 205.691 261.563 208.391 267.856 206.511C276.383 203.964 280.497 194.392 276.484 186.539L256.515 147.332L219.433 179.349L232.3 204.655C230.733 204.859 229.172 205.272 227.687 206.028C220.716 209.573 218.126 218.046 221.672 224.979C224.817 231.135 231.722 234.057 238.151 232.136Z" fill="#EBEDF9"/>
<path d="M160.177 303.068C159.87 299.434 158.098 296.062 155.188 293.573C155.068 293.472 154.949 293.373 154.83 293.277C156.681 289.561 158.107 286.444 159.013 284.397C159.389 283.546 159.76 282.728 160.123 281.944C164.457 281.403 168.482 280.765 171.631 279.341C180.559 275.304 182.552 270.064 182.945 267.3C183.4 264.104 182.248 261.062 179.785 258.956C177.546 257.041 174.935 256.353 172.237 256.966C166.943 258.169 161.687 264.276 155.886 276.046C146.797 277.14 136.758 278.599 130.583 285.821C124.059 293.45 125.037 300.764 127.006 305.557C129.047 310.524 132.575 313.735 132.724 313.869L132.785 313.922C133.28 314.346 133.787 314.744 134.305 315.117L134.116 315.371C131.68 318.656 129.576 321.493 127.176 323.488C124.889 325.389 122.807 324.775 121.717 323.67C121.258 323.205 120.312 321.982 121.429 320.675L116.593 316.54C113.675 319.953 113.925 324.83 117.187 328.138C117.386 328.339 117.592 328.531 117.805 328.714C119.426 330.099 121.45 330.926 123.587 331.061C126.282 331.231 128.93 330.304 131.244 328.38C134.231 325.897 136.546 322.775 139.227 319.161L139.807 318.379C139.889 318.27 139.969 318.16 140.05 318.051C141.562 318.534 143.095 318.809 144.607 318.859C149.314 319.012 153.53 317.073 156.8 313.249C159.287 310.341 160.486 306.725 160.177 303.068ZM173.646 263.171C174.17 263.052 174.776 263.044 175.65 263.792C176.206 264.267 176.831 265.107 176.646 266.403C176.515 267.328 175.575 270.575 169.01 273.544C167.57 274.195 165.702 274.652 163.589 275.018C168.88 265.346 172.259 263.485 173.646 263.171ZM136.965 309.125C136.693 308.868 134.204 306.454 132.821 302.964C131.004 298.38 131.854 294.125 135.419 289.956C139.268 285.454 145.988 283.839 152.727 282.871C151.825 284.874 150.556 287.601 148.982 290.75C145.64 290.435 142.62 291.977 140.675 294.252C139.109 296.083 138.515 298.284 139.003 300.449C139.377 302.11 140.322 303.5 141.383 304.578C140.299 306.365 139.163 308.158 137.982 309.922C137.63 309.667 137.29 309.401 136.965 309.125ZM143.961 312.415C146.894 307.942 149.541 303.352 151.804 299.131C154.462 302.003 154.577 306.058 151.964 309.114C149.556 311.93 146.707 312.75 143.961 312.415Z" fill="#EBEDF9"/>
<path d="M74.3216 592.999C70.72 592.423 67.0211 593.332 63.9057 595.559C63.7782 595.65 63.6536 595.742 63.5318 595.835C60.3704 593.144 57.6872 591.01 55.9187 589.639C55.1833 589.069 54.4785 588.513 53.8044 587.972C54.3221 583.634 54.6704 579.574 54.0455 576.175C52.2741 566.539 47.667 563.344 45.0784 562.297C42.0855 561.087 38.8565 561.474 36.2196 563.358C33.8224 565.071 32.5267 567.44 32.4728 570.207C32.3669 575.634 37.0308 582.205 47.061 590.666C45.9372 599.752 44.9391 609.846 50.4636 617.577C56.3004 625.744 63.6351 626.554 68.7606 625.795C74.0726 625.008 78.0376 622.356 78.2038 622.244L78.2698 622.198C78.8 621.819 79.3087 621.422 79.7949 621.009L79.9965 621.254C82.599 624.408 84.8467 627.133 86.2062 629.942C87.5017 632.619 86.4047 634.492 85.0701 635.285C84.5082 635.618 83.0933 636.243 82.094 634.844L76.9175 638.544C79.528 642.197 84.3224 643.127 88.3173 640.756C88.5607 640.612 88.7965 640.458 89.025 640.295C90.7597 639.055 92.0488 637.289 92.694 635.247C93.5074 632.672 93.2444 629.879 91.9334 627.17C90.241 623.673 87.768 620.676 84.9042 617.205L84.2844 616.453C84.1981 616.348 84.1115 616.243 84.0245 616.138C84.8575 614.787 85.4928 613.365 85.9045 611.909C87.1857 607.377 86.3169 602.819 83.3918 598.726C81.167 595.612 77.9457 593.578 74.3216 592.999ZM38.834 570.331C38.8446 569.793 38.9831 569.204 39.9189 568.535C40.5143 568.109 41.4792 567.705 42.6935 568.196C43.5592 568.546 46.4853 570.239 47.788 577.326C48.0737 578.88 48.0681 580.803 47.9154 582.942C39.8 575.48 38.8062 571.752 38.834 570.331ZM74.619 616.987C74.3039 617.189 71.3625 619.025 67.6419 619.528C62.7553 620.188 58.8295 618.34 55.6401 613.877C52.1962 609.058 52.2443 602.148 52.9259 595.374C54.6532 596.73 56.9947 598.618 59.6726 600.903C58.5632 604.071 59.3342 607.374 61.0744 609.809C62.4752 611.769 64.4686 612.875 66.6873 612.922C68.3895 612.959 69.9663 612.376 71.2682 611.604C72.7414 613.087 74.2082 614.621 75.6369 616.191C75.305 616.472 74.9645 616.738 74.619 616.987ZM79.4946 610.987C75.8583 607.065 72.0397 603.392 68.4864 600.179C71.9137 598.29 75.8775 599.153 78.2156 602.425C80.3696 605.439 80.4802 608.402 79.4946 610.987Z" fill="#EBEDF9"/>
<path d="M38.0363 194.994C36.855 194.466 35.5866 194.087 34.2214 193.98C27.7518 193.466 22.1449 198.277 21.6008 204.617C21.0526 210.999 25.8055 216.592 32.2387 217.092C38.6336 217.591 44.3066 212.835 44.8593 206.456L44.8579 206.452L46.702 184.933L54.8331 194.467L60.7795 189.455L40.5425 165.725L38.0363 194.994Z" fill="#EBEDF9"/>
<path d="M239.946 634.725C238.973 633.872 237.874 633.135 236.601 632.628C230.574 630.223 223.794 633.161 221.399 639.055C218.987 644.989 221.873 651.738 227.87 654.119C233.831 656.487 240.657 653.623 243.072 647.693L243.072 647.689L251.2 627.679L256.146 639.191L263.309 636.162L250.998 607.508L239.946 634.725Z" fill="#EBEDF9"/>
<path d="M4.29546 406.527C5.04678 409.306 6.93345 411.687 9.60833 413.231C12.9489 415.16 17.214 415.642 21.3098 414.554C24.8787 413.606 27.957 411.573 29.9773 408.829C30.2658 408.437 30.5268 408.034 30.7641 407.623L30.7661 407.624L48.7937 376.399L74.3339 385.191L62.1404 406.31C61.2286 405.133 60.0629 404.115 58.6864 403.32C55.3458 401.391 51.0807 400.909 46.9849 401.998C39.3476 404.026 34.5536 410.928 36.2978 417.383C37.0493 420.162 38.9358 422.543 41.6107 424.087C44.9513 426.016 49.2164 426.498 53.3122 425.41C56.881 424.462 59.9594 422.429 61.9797 419.685C62.2682 419.293 62.5291 418.89 62.7665 418.479L62.7684 418.48L80.7191 387.388L106.356 396.213L94.2142 417.243C93.3025 416.065 92.1368 415.047 90.7602 414.253C87.4196 412.324 83.1545 411.842 79.0587 412.93C71.4214 414.959 66.6274 421.861 68.3717 428.316C69.1227 431.094 71.0096 433.475 73.6845 435.02C77.0251 436.948 81.2902 437.43 85.386 436.342C88.9549 435.394 92.0332 433.361 94.0536 430.617C94.3421 430.226 94.6033 429.822 94.8405 429.411L94.8424 429.412L119.04 387.5L49.2237 362.398L30.1381 395.455C29.2263 394.277 28.0607 393.259 26.6841 392.465C23.3435 390.536 19.0784 390.054 14.9826 391.142C7.34532 393.171 2.5513 400.072 4.29546 406.527Z" fill="#EBEDF9"/>
<path d="M161.838 527.418C164.198 528.045 166.746 527.67 169.014 526.36C171.846 524.725 174.007 521.797 174.944 518.327C175.76 515.304 175.571 512.181 174.412 509.533C174.247 509.155 174.061 508.792 173.86 508.443L173.861 508.442L161.273 486.638L178.878 472.174L186.198 484.853C184.947 485.023 183.706 485.448 182.539 486.121C179.706 487.756 177.545 490.684 176.609 494.154C174.862 500.624 177.899 507.073 183.379 508.531C185.739 509.159 188.287 508.783 190.555 507.474C193.387 505.839 195.548 502.911 196.485 499.441C197.301 496.418 197.112 493.294 195.953 490.646C195.788 490.268 195.602 489.905 195.401 489.556L195.402 489.555L174.874 454L148.467 475.697L164.657 503.74C163.406 503.91 162.165 504.334 160.998 505.008C158.165 506.643 156.004 509.571 155.068 513.041C153.321 519.511 156.359 525.96 161.838 527.418ZM173.279 462.476L176.072 467.314L158.467 481.778L155.674 476.941L173.279 462.476Z" fill="#EBEDF9"/>
<path d="M248.151 87.1362C256.66 84.5946 260.755 74.9858 256.756 67.1663L241.203 36.609L263.574 17.3627L272.021 34.0174C270.443 34.2275 268.886 34.6539 267.419 35.3994C260.446 38.9493 257.642 47.443 261.202 54.4065C264.414 60.6913 271.563 63.391 277.856 61.5112C286.383 58.9638 290.497 49.3921 286.484 41.5393L266.515 2.33211L229.433 34.349L242.3 59.6555C240.733 59.8593 239.172 60.2716 237.687 61.0277C230.716 64.5732 228.126 73.0465 231.672 79.9794C234.817 86.135 241.722 89.0568 248.151 87.1362Z" fill="#EBEDF9"/>
<path d="M160.177 177.068C159.87 173.434 158.098 170.062 155.188 167.573C155.068 167.472 154.949 167.373 154.83 167.277C156.681 163.561 158.107 160.444 159.013 158.397C159.389 157.546 159.76 156.728 160.123 155.944C164.457 155.403 168.482 154.765 171.631 153.341C180.559 149.304 182.552 144.064 182.945 141.3C183.4 138.104 182.248 135.062 179.785 132.956C177.546 131.041 174.935 130.353 172.237 130.966C166.943 132.169 161.687 138.276 155.886 150.046C146.797 151.14 136.758 152.599 130.583 159.821C124.059 167.45 125.037 174.764 127.006 179.557C129.047 184.524 132.575 187.735 132.724 187.869L132.785 187.922C133.28 188.346 133.787 188.744 134.305 189.117L134.116 189.371C131.68 192.656 129.576 195.493 127.176 197.488C124.889 199.389 122.807 198.775 121.717 197.67C121.258 197.205 120.312 195.982 121.429 194.675L116.593 190.54C113.675 193.953 113.925 198.83 117.187 202.138C117.386 202.339 117.592 202.531 117.805 202.714C119.426 204.099 121.45 204.926 123.587 205.061C126.282 205.231 128.93 204.304 131.244 202.38C134.231 199.897 136.546 196.775 139.227 193.161L139.807 192.379C139.889 192.27 139.969 192.16 140.05 192.051C141.562 192.534 143.095 192.809 144.607 192.859C149.314 193.012 153.53 191.073 156.8 187.249C159.287 184.341 160.486 180.725 160.177 177.068ZM173.646 137.171C174.17 137.052 174.776 137.044 175.65 137.792C176.206 138.267 176.831 139.107 176.646 140.403C176.515 141.328 175.575 144.575 169.01 147.544C167.57 148.195 165.702 148.652 163.589 149.018C168.88 139.346 172.259 137.485 173.646 137.171ZM136.965 183.125C136.693 182.868 134.204 180.454 132.821 176.964C131.004 172.38 131.854 168.125 135.419 163.956C139.268 159.454 145.988 157.839 152.727 156.871C151.825 158.874 150.556 161.601 148.982 164.75C145.64 164.435 142.62 165.977 140.675 168.252C139.109 170.083 138.515 172.284 139.003 174.449C139.377 176.11 140.322 177.5 141.383 178.578C140.299 180.365 139.163 182.158 137.982 183.922C137.63 183.667 137.29 183.401 136.965 183.125ZM143.961 186.415C146.894 181.942 149.541 177.352 151.804 173.131C154.462 176.003 154.577 180.058 151.964 183.114C149.556 185.93 146.707 186.75 143.961 186.415Z" fill="#EBEDF9"/>
<path d="M74.3216 466.999C70.72 466.423 67.0211 467.332 63.9057 469.559C63.7782 469.65 63.6536 469.742 63.5318 469.835C60.3704 467.144 57.6872 465.01 55.9187 463.639C55.1833 463.069 54.4785 462.513 53.8044 461.972C54.3221 457.634 54.6704 453.574 54.0455 450.175C52.2741 440.539 47.667 437.344 45.0784 436.297C42.0855 435.087 38.8565 435.474 36.2196 437.358C33.8224 439.071 32.5267 441.44 32.4728 444.207C32.3669 449.634 37.0308 456.205 47.061 464.666C45.9372 473.752 44.9391 483.846 50.4636 491.577C56.3004 499.744 63.6351 500.554 68.7606 499.795C74.0726 499.008 78.0376 496.356 78.2038 496.244L78.2698 496.198C78.8 495.819 79.3087 495.422 79.7949 495.009L79.9965 495.254C82.599 498.408 84.8467 501.133 86.2062 503.942C87.5017 506.619 86.4047 508.492 85.0701 509.285C84.5082 509.618 83.0933 510.243 82.094 508.844L76.9175 512.544C79.528 516.197 84.3224 517.127 88.3173 514.756C88.5607 514.612 88.7965 514.458 89.025 514.295C90.7597 513.055 92.0488 511.289 92.694 509.247C93.5074 506.672 93.2444 503.879 91.9334 501.17C90.241 497.673 87.768 494.676 84.9042 491.205L84.2844 490.453C84.1981 490.348 84.1115 490.243 84.0245 490.138C84.8575 488.787 85.4928 487.365 85.9045 485.909C87.1857 481.377 86.3169 476.819 83.3918 472.726C81.167 469.612 77.9457 467.578 74.3216 466.999ZM38.834 444.331C38.8446 443.793 38.9831 443.204 39.9189 442.535C40.5143 442.109 41.4792 441.705 42.6935 442.196C43.5592 442.546 46.4853 444.239 47.788 451.326C48.0737 452.88 48.0681 454.803 47.9154 456.942C39.8 449.48 38.8062 445.752 38.834 444.331ZM74.619 490.987C74.3039 491.189 71.3625 493.025 67.6419 493.528C62.7553 494.188 58.8295 492.34 55.6401 487.877C52.1962 483.058 52.2443 476.148 52.9259 469.374C54.6532 470.73 56.9947 472.618 59.6726 474.903C58.5632 478.071 59.3342 481.374 61.0744 483.809C62.4752 485.769 64.4686 486.875 66.6873 486.922C68.3895 486.959 69.9663 486.376 71.2682 485.604C72.7414 487.087 74.2082 488.621 75.6369 490.191C75.305 490.472 74.9645 490.738 74.619 490.987ZM79.4946 484.987C75.8583 481.065 72.0397 477.392 68.4864 474.179C71.9137 472.29 75.8775 473.153 78.2156 476.425C80.3696 479.439 80.4802 482.402 79.4946 484.987Z" fill="#EBEDF9"/>
<path d="M25.813 44.1263C25.2026 42.9855 24.4324 41.9089 23.419 40.9877C18.6209 36.6177 11.2417 36.9852 6.92789 41.662C2.5844 46.3703 2.91426 53.7027 7.69211 58.0396C12.441 62.3512 19.8381 62.0685 24.1833 57.3653L24.1844 57.3616L38.8256 41.4841L39.4112 54.0005L47.1818 53.6821L45.7255 22.5294L25.813 44.1263Z" fill="#EBEDF9"/>
<path d="M239.946 508.725C238.973 507.872 237.874 507.135 236.601 506.628C230.574 504.223 223.794 507.161 221.399 513.055C218.987 518.989 221.873 525.738 227.87 528.119C233.831 530.487 240.657 527.623 243.072 521.693L243.072 521.689L251.2 501.679L256.146 513.191L263.309 510.162L250.998 481.508L239.946 508.725Z" fill="#EBEDF9"/>
<path d="M4.29546 280.527C5.04678 283.306 6.93345 285.687 9.60833 287.231C12.9489 289.16 17.214 289.642 21.3098 288.554C24.8787 287.606 27.957 285.573 29.9773 282.829C30.2658 282.437 30.5268 282.034 30.7641 281.623L30.7661 281.624L48.7937 250.399L74.3339 259.191L62.1404 280.31C61.2286 279.133 60.0629 278.115 58.6864 277.32C55.3458 275.391 51.0807 274.909 46.9849 275.998C39.3476 278.026 34.5536 284.928 36.2978 291.383C37.0493 294.162 38.9358 296.543 41.6107 298.087C44.9513 300.016 49.2164 300.498 53.3122 299.41C56.881 298.462 59.9594 296.429 61.9797 293.685C62.2682 293.293 62.5291 292.89 62.7665 292.479L62.7684 292.48L80.7191 261.388L106.356 270.213L94.2142 291.243C93.3025 290.065 92.1368 289.047 90.7602 288.253C87.4196 286.324 83.1545 285.842 79.0587 286.93C71.4214 288.959 66.6274 295.861 68.3717 302.316C69.1227 305.094 71.0096 307.475 73.6845 309.02C77.0251 310.948 81.2902 311.43 85.386 310.342C88.9549 309.394 92.0332 307.361 94.0536 304.617C94.3421 304.226 94.6033 303.822 94.8405 303.411L94.8424 303.412L119.04 261.5L49.2237 236.398L30.1381 269.455C29.2263 268.277 28.0607 267.259 26.6841 266.465C23.3435 264.536 19.0784 264.054 14.9826 265.142C7.34532 267.171 2.5513 274.072 4.29546 280.527Z" fill="#EBEDF9"/>
<path d="M161.838 401.418C164.198 402.045 166.746 401.67 169.014 400.36C171.846 398.725 174.007 395.797 174.944 392.327C175.76 389.304 175.571 386.181 174.412 383.533C174.247 383.155 174.061 382.792 173.86 382.443L173.861 382.442L161.273 360.638L178.878 346.174L186.198 358.853C184.947 359.023 183.706 359.448 182.539 360.121C179.706 361.756 177.545 364.684 176.609 368.154C174.862 374.624 177.899 381.073 183.379 382.531C185.739 383.159 188.287 382.783 190.555 381.474C193.387 379.839 195.548 376.911 196.485 373.441C197.301 370.418 197.112 367.294 195.953 364.646C195.788 364.268 195.602 363.905 195.401 363.556L195.402 363.555L174.874 328L148.467 349.697L164.657 377.74C163.406 377.91 162.165 378.334 160.998 379.008C158.165 380.643 156.004 383.571 155.068 387.041C153.321 393.511 156.359 399.96 161.838 401.418ZM173.279 336.476L176.072 341.314L158.467 355.778L155.674 350.941L173.279 336.476Z" fill="#EBEDF9"/>
</g>
<defs>
<filter id="filter0_b" x="-4" y="-4" width="304.075" height="663.663" filterUnits="userSpaceOnUse" color-interpolation-filters="sRGB">
<feFlood flood-opacity="0" result="BackgroundImageFix"/>
<feGaussianBlur in="BackgroundImage" stdDeviation="2"/>
<feComposite in2="SourceAlpha" operator="in" result="effect1_backgroundBlur"/>
<feBlend mode="normal" in="SourceGraphic" in2="effect1_backgroundBlur" result="shape"/>
</filter>
</defs>
</svg>
