<svg width="12" height="114" viewBox="0 0 12 114" fill="none" xmlns="http://www.w3.org/2000/svg">
<circle cx="6" cy="6" r="6" fill="#D8D8D8"/>
<circle r="1.5" transform="matrix(-1 0 0 1 6.5 17.5)" fill="#D8D8D8"/>
<circle r="1.5" transform="matrix(-1 0 0 1 6.5 24.5)" fill="#D8D8D8"/>
<circle r="1.5" transform="matrix(-1 0 0 1 6.5 31.5)" fill="#D8D8D8"/>
<circle r="1.5" transform="matrix(-1 0 0 1 6.5 38.5)" fill="#D8D8D8"/>
<circle r="1.5" transform="matrix(-1 0 0 1 6.5 45.5)" fill="#D8D8D8"/>
<circle r="1.5" transform="matrix(-1 0 0 1 6.5 68.5)" fill="#D8D8D8"/>
<circle r="1.5" transform="matrix(-1 0 0 1 6.5 75.5)" fill="#D8D8D8"/>
<circle r="1.5" transform="matrix(-1 0 0 1 6.5 82.5)" fill="#D8D8D8"/>
<circle r="1.5" transform="matrix(-1 0 0 1 6.5 89.5)" fill="#D8D8D8"/>
<circle r="1.5" transform="matrix(-1 0 0 1 6.5 96.5)" fill="#D8D8D8"/>
<circle cx="6" cy="57" r="6" fill="#D8D8D8"/>
<circle cx="6" cy="108" r="6" fill="#D8D8D8"/>
</svg>
