<svg width="35" height="37" viewBox="0 0 35 37" fill="none" xmlns="http://www.w3.org/2000/svg">
<path d="M34.4097 12.5L23.0135 10.0947L17.2048 0V27.9723L27.8377 32.7251L26.6035 21.1436L34.4097 12.5Z" fill="#D8D8D8"/>
<path d="M11.3962 10.0947L0 12.5L7.80614 21.1436L6.57193 32.7251L17.2048 27.9723V0L11.3962 10.0947Z" fill="#D8D8D8"/>
<path d="M27.0737 21.9857L27.0737 21.9857C26.6337 21.9218 26.2524 21.6457 26.0555 21.2466L23.3165 15.6959C23.2575 15.5763 23.1347 15.5 23.0012 15.5C22.8681 15.5 22.7453 15.5759 22.6856 15.6965L19.9456 21.2457C19.9456 21.2459 19.9455 21.246 19.9454 21.2461C19.9454 21.2461 19.9454 21.2462 19.9454 21.2462C19.7485 21.6457 19.3674 21.9217 18.9279 21.9857L18.9277 21.9857L12.8013 22.8757L12.8011 22.8757C12.6685 22.8949 12.5586 22.9876 12.5172 23.115C12.476 23.2418 12.5103 23.3816 12.6063 23.4753L17.0381 27.796C17.3563 28.106 17.5028 28.5533 17.4274 28.9923C17.4274 28.9924 17.4274 28.9925 17.4273 28.9925L16.3814 35.0932C16.3586 35.2265 16.4134 35.3598 16.5209 35.4378L16.2274 35.8425L16.5209 35.4378C16.6291 35.5162 16.7731 35.5267 16.8917 35.4645L27.0737 21.9857ZM27.0737 21.9857L33.1992 22.8757L33.1994 22.8757C33.3316 22.8948 33.4413 22.9873 33.4828 23.115C33.5241 23.2421 33.4895 23.382 33.3941 23.4749L33.3938 23.4752L28.9619 27.796C28.6432 28.1065 28.498 28.5537 28.5725 28.9917L28.5726 28.9923L29.6185 35.0925C29.6185 35.0926 29.6185 35.0926 29.6185 35.0927C29.6411 35.2265 29.5865 35.3594 29.4786 35.4378C29.3701 35.516 29.2267 35.5267 29.107 35.4646C29.1067 35.4645 29.1065 35.4643 29.1063 35.4642L23.6291 32.5842L27.0737 21.9857ZM22.3708 32.5841L16.8921 35.4644L23.6288 32.5841C23.2351 32.3768 22.7644 32.3771 22.3708 32.5841Z" fill="#D8D8D8" stroke="white"/>
</svg>
